<svg width="753" height="234" viewBox="0 0 753 234" fill="none" xmlns="http://www.w3.org/2000/svg">
<path d="M49.2 26.322H0V0H125.952V26.322H76.752V176.136H49.2V26.322Z" fill="#4285F4"/>
<path d="M187.292 180.072C174.664 180.072 163.348 177.202 153.344 171.462C143.34 165.558 135.55 157.522 129.974 147.354C124.398 137.186 121.61 125.87 121.61 113.406C121.61 100.942 124.398 89.626 129.974 79.458C135.55 69.29 143.34 61.336 153.344 55.596C163.348 49.692 174.664 46.74 187.292 46.74C199.92 46.74 211.236 49.692 221.24 55.596C231.244 61.5 239.034 69.536 244.61 79.704C250.186 89.872 252.975 101.106 252.975 113.406C252.975 125.87 250.186 137.186 244.61 147.354C239.034 157.522 231.244 165.558 221.24 171.462C211.236 177.202 199.92 180.072 187.292 180.072ZM187.292 155.226C194.18 155.226 200.576 153.586 206.48 150.306C212.384 146.862 217.058 142.024 220.502 135.792C224.11 129.396 225.914 121.934 225.914 113.406C225.914 104.878 224.11 97.498 220.502 91.266C217.058 85.034 212.384 80.278 206.48 76.998C200.576 73.554 194.18 71.832 187.292 71.832C180.404 71.832 174.008 73.554 168.104 76.998C162.2 80.278 157.444 85.034 153.836 91.266C150.392 97.498 148.67 104.878 148.67 113.406C148.67 121.934 150.392 129.396 153.836 135.792C157.444 142.024 162.2 146.862 168.104 150.306C174.008 153.586 180.404 155.226 187.292 155.226Z" fill="#EA4335"/>
<path d="M336.718 180.072C324.09 180.072 312.774 177.202 302.77 171.462C292.766 165.558 284.976 157.522 279.4 147.354C273.824 137.186 271.036 125.87 271.036 113.406C271.036 100.942 273.824 89.626 279.4 79.458C284.976 69.29 292.766 61.336 302.77 55.596C312.774 49.692 324.09 46.74 336.718 46.74C349.346 46.74 360.662 49.692 370.666 55.596C380.67 61.5 388.46 69.536 394.036 79.704C399.612 89.872 402.4 101.106 402.4 113.406C402.4 125.87 399.612 137.186 394.036 147.354C388.46 157.522 380.67 165.558 370.666 171.462C360.662 177.202 349.346 180.072 336.718 180.072ZM336.718 155.226C343.606 155.226 350.002 153.586 355.906 150.306C361.81 146.862 366.484 142.024 369.928 135.792C373.536 129.396 375.34 121.934 375.34 113.406C375.34 104.878 373.536 97.498 369.928 91.266C366.484 85.034 361.81 80.278 355.906 76.998C350.002 73.554 343.606 71.832 336.718 71.832C329.83 71.832 323.434 73.554 317.53 76.998C311.626 80.278 306.87 85.034 303.262 91.266C299.818 97.498 298.096 104.878 298.096 113.406C298.096 121.934 299.818 129.396 303.262 135.792C306.87 142.024 311.626 146.862 317.53 150.306C323.434 153.586 329.83 155.226 336.718 155.226Z" fill="#FBBC05"/>
<path d="M483.93 233.208C468.514 233.208 455.722 229.682 445.554 222.63C435.55 215.578 428.826 207.214 425.382 197.538L450.72 186.96C453.344 193.52 457.526 198.768 463.266 202.704C469.17 206.804 476.058 208.854 483.93 208.854C495.41 208.854 504.348 205.41 510.744 198.522C517.304 191.798 520.584 182.286 520.584 169.986V158.424H519.108C515.008 164.328 509.514 169.002 502.626 172.446C495.902 175.726 488.112 177.366 479.256 177.366C468.76 177.366 459.002 174.66 449.982 169.248C440.962 163.836 433.746 156.21 428.334 146.37C423.086 136.366 420.462 124.968 420.462 112.176C420.462 99.384 423.086 88.068 428.334 78.228C433.746 68.224 440.962 60.516 449.982 55.104C459.002 49.528 468.76 46.74 479.256 46.74C487.948 46.74 495.738 48.462 502.626 51.906C509.514 55.35 515.008 60.024 519.108 65.928H520.584V50.676H546.414V169.248C546.414 182.86 543.79 194.422 538.542 203.934C533.294 213.61 525.914 220.908 516.402 225.828C507.054 230.748 496.23 233.208 483.93 233.208ZM484.176 152.766C490.736 152.766 496.804 151.208 502.38 148.092C507.956 144.812 512.384 140.138 515.664 134.07C518.944 127.838 520.584 120.54 520.584 112.176C520.584 99.384 517.058 89.462 510.006 82.41C503.118 75.194 494.508 71.586 484.176 71.586C477.452 71.586 471.302 73.226 465.726 76.506C460.15 79.622 455.722 84.214 452.442 90.282C449.162 96.35 447.522 103.648 447.522 112.176C447.522 120.704 449.162 128.002 452.442 134.07C455.722 140.138 460.15 144.812 465.726 148.092C471.302 151.208 477.452 152.766 484.176 152.766Z" fill="#4285F4"/>
<path d="M578.217 0H605.277V176.136H578.217V0Z" fill="#34A853"/>
<path d="M693.191 180.072C680.891 180.072 669.822 177.202 659.982 171.462C650.306 165.722 642.68 157.85 637.104 147.846C631.692 137.678 628.985 126.28 628.985 113.652C628.985 101.68 631.609 90.61 636.857 80.442C642.269 70.11 649.731 61.91 659.243 55.842C668.755 49.774 679.58 46.74 691.716 46.74C704.344 46.74 715.249 49.528 724.433 55.104C733.781 60.68 740.833 68.306 745.589 77.982C750.509 87.658 752.969 98.564 752.969 110.7C752.969 112.996 752.724 115.866 752.232 119.31H656.045C657.029 130.954 661.129 139.974 668.345 146.37C675.725 152.602 684.254 155.718 693.93 155.718C701.638 155.718 708.279 153.996 713.855 150.552C719.595 146.944 724.187 142.106 727.631 136.038L750.51 146.862C744.606 157.194 736.897 165.312 727.385 171.216C717.873 177.12 706.475 180.072 693.191 180.072ZM725.417 98.646C725.089 94.218 723.695 89.872 721.235 85.608C718.775 81.18 715.003 77.49 709.919 74.538C704.999 71.586 698.932 70.11 691.716 70.11C683.024 70.11 675.644 72.734 669.576 77.982C663.672 83.066 659.572 89.954 657.276 98.646H725.417Z" fill="#EA4335"/>
</svg>
